<svg width="48" height="30" viewBox="0 0 48 30" fill="none" xmlns="http://www.w3.org/2000/svg">
<path d="M43.3008 0.351562L45.1172 5.97656L42.9492 6.73828C42.0117 6.97266 41.0547 7.51953 40.0781 8.37891C39.1016 9.12109 38.6133 10.2148 38.6133 11.6602C40.4102 11.6602 41.9922 12.0898 43.3594 12.9492C44.7656 13.7695 45.8398 14.9414 46.582 16.4648C46.9727 17.7148 47.2461 18.9453 47.4023 20.1562C47.4023 21.9922 46.8359 23.7109 45.7031 25.3125C44.6094 26.9141 43.2227 28.0859 41.543 28.8281C39.8633 29.375 38.3008 29.6484 36.8555 29.6484C35.4883 29.6484 33.9648 29.1602 32.2852 28.1836C30.8398 27.2461 29.6484 25.918 28.7109 24.1992C27.8125 22.4805 27.3633 20.6055 27.3633 18.5742C27.3633 15.8008 28.2031 13.0078 29.8828 10.1953C31.5625 7.38281 33.3789 5.3125 35.332 3.98438C37.2852 2.61719 39.9414 1.40625 43.3008 0.351562ZM15.8203 0.351562L17.5195 5.97656L15.2344 6.73828C14.6094 6.89453 13.7891 7.38281 12.7734 8.20312C11.7969 8.98438 11.3086 10.1367 11.3086 11.6602C13.0664 11.6602 14.6484 12.0898 16.0547 12.9492C17.5 13.7695 18.457 14.8828 18.9258 16.2891C19.4336 17.6562 19.7656 18.9453 19.9219 20.1562L19.5703 23.0273C19.3359 23.6914 18.75 24.668 17.8125 25.957C16.9141 27.207 15.6641 28.2031 14.0625 28.9453C13.3203 29.2578 12.5977 29.4531 11.8945 29.5312C11.2305 29.6094 10.4297 29.6484 9.49219 29.6484C7.73438 29.6484 6.17188 29.2188 4.80469 28.3594C3.4375 27.4609 2.28516 26.0742 1.34766 24.1992C0.449219 22.3242 0 20.4102 0 18.457C0 15.7617 0.761719 13.0469 2.28516 10.3125C3.80859 7.57812 5.625 5.50781 7.73438 4.10156C9.84375 2.65625 12.5391 1.40625 15.8203 0.351562Z" fill="white"/>
</svg>
